<?xml version="1.0" encoding="utf-8"?>
<!-- Generator: Adobe Illustrator 27.8.0, SVG Export Plug-In . SVG Version: 6.00 Build 0)  -->
<svg version="1.1" xmlns="http://www.w3.org/2000/svg" xmlns:xlink="http://www.w3.org/1999/xlink" x="0px" y="0px"
	 viewBox="0 0 892.9 907.1" style="enable-background:new 0 0 892.9 907.1;" xml:space="preserve">
<style type="text/css">
	.st0{fill:#FFFFFF;}
	.st1{fill:#FFFFFF;stroke:#FFFFFF;stroke-width:2;stroke-miterlimit:10;}
	.st2{fill:#335AFA;}
	.st3{fill:#DA0000;}
</style>
<g id="Calque_2">
	<g>
		<g>
			<g>
				<g>
					<rect x="268.2" y="620.4" class="st0" width="9.4" height="2.8"/>
					<rect x="253.9" y="620.4" class="st0" width="9.4" height="2.8"/>
					<rect x="282.6" y="620.4" class="st0" width="9.4" height="2.8"/>
					<rect x="235.6" y="620.4" class="st0" width="13.3" height="2.8"/>
				</g>
				<g>
					<rect x="235.6" y="764.7" class="st0" width="2.8" height="9.4"/>
					<rect x="235.6" y="750.3" class="st0" width="2.8" height="9.4"/>
					<rect x="235.6" y="779.1" class="st0" width="2.8" height="9.4"/>
					<rect x="235.6" y="807.9" class="st0" width="2.8" height="9.4"/>
					<rect x="235.6" y="620.4" class="st0" width="2.8" height="9.8"/>
					<rect x="235.6" y="735.9" class="st0" width="2.8" height="9.4"/>
					<rect x="235.6" y="822.3" class="st0" width="2.8" height="9.4"/>
					<rect x="235.6" y="793.5" class="st0" width="2.8" height="9.4"/>
					<rect x="235.6" y="692.8" class="st0" width="2.8" height="9.4"/>
					<rect x="235.6" y="635.2" class="st0" width="2.8" height="9.4"/>
					<rect x="235.6" y="836.7" class="st0" width="2.8" height="13.3"/>
					<rect x="235.6" y="649.6" class="st0" width="2.8" height="9.4"/>
					<rect x="235.6" y="721.6" class="st0" width="2.8" height="9.4"/>
					<rect x="235.6" y="707.2" class="st0" width="2.8" height="9.4"/>
					<rect x="235.6" y="664" class="st0" width="2.8" height="9.4"/>
					<rect x="235.6" y="678.4" class="st0" width="2.8" height="9.4"/>
				</g>
			</g>
			<g>
				<rect x="268.2" y="847.2" class="st0" width="9.4" height="2.8"/>
				<rect x="253.9" y="847.2" class="st0" width="9.4" height="2.8"/>
				<rect x="282.6" y="847.2" class="st0" width="9.4" height="2.8"/>
				<rect x="235.6" y="847.2" class="st0" width="13.3" height="2.8"/>
			</g>
		</g>
		<g>
			<g>
				<g>
					<rect x="622" y="620.4" class="st0" width="9.4" height="2.8"/>
					<rect x="636.4" y="620.4" class="st0" width="9.4" height="2.8"/>
					<rect x="607.6" y="620.4" class="st0" width="9.4" height="2.8"/>
					<rect x="650.8" y="620.4" class="st0" width="13.3" height="2.8"/>
				</g>
				<g>
					<rect x="661.3" y="764.7" class="st0" width="2.8" height="9.4"/>
					<rect x="661.3" y="750.3" class="st0" width="2.8" height="9.4"/>
					<rect x="661.3" y="779.1" class="st0" width="2.8" height="9.4"/>
					<rect x="661.3" y="807.9" class="st0" width="2.8" height="9.4"/>
					<rect x="661.3" y="620.4" class="st0" width="2.8" height="9.8"/>
					<rect x="661.3" y="735.9" class="st0" width="2.8" height="9.4"/>
					<rect x="661.3" y="822.3" class="st0" width="2.8" height="9.4"/>
					<rect x="661.3" y="793.5" class="st0" width="2.8" height="9.4"/>
					<rect x="661.3" y="692.8" class="st0" width="2.8" height="9.4"/>
					<rect x="661.3" y="635.2" class="st0" width="2.8" height="9.4"/>
					<rect x="661.3" y="836.7" class="st0" width="2.8" height="13.3"/>
					<rect x="661.3" y="649.6" class="st0" width="2.8" height="9.4"/>
					<rect x="661.3" y="721.6" class="st0" width="2.8" height="9.4"/>
					<rect x="661.3" y="707.2" class="st0" width="2.8" height="9.4"/>
					<rect x="661.3" y="664" class="st0" width="2.8" height="9.4"/>
					<rect x="661.3" y="678.4" class="st0" width="2.8" height="9.4"/>
				</g>
			</g>
			<g>
				<rect x="622" y="847.2" class="st0" width="9.4" height="2.8"/>
				<rect x="636.4" y="847.2" class="st0" width="9.4" height="2.8"/>
				<rect x="607.6" y="847.2" class="st0" width="9.4" height="2.8"/>
				<rect x="650.8" y="847.2" class="st0" width="13.3" height="2.8"/>
			</g>
		</g>
	</g>
</g>
<g id="Calque_3">
	<g>
		<path class="st1" d="M280.9,748.5v1.6h-28.2v-20h27.6v1.5h-26v7.3h23.8v1.5h-23.8v8H280.9z"/>
		<path class="st1" d="M311.3,730.1v10c0,1.4-0.2,2.7-0.7,3.7s-1.1,2-1.9,2.7c-0.8,0.8-1.7,1.4-2.7,1.8s-2.2,0.8-3.3,1.1
			c-1.2,0.3-2.4,0.5-3.6,0.6c-1.2,0.1-2.4,0.2-3.5,0.2c-1.7,0-3.5-0.1-5.5-0.3c-1.9-0.2-3.9-0.5-6.1-0.8l0.3-1.5
			c2.3,0.4,4.4,0.7,6.4,0.9c2,0.2,3.9,0.3,5.7,0.2c1,0,2-0.1,3-0.2s2-0.3,3-0.5c1-0.2,1.9-0.6,2.8-1c0.9-0.4,1.7-0.9,2.3-1.6
			c0.7-0.6,1.2-1.4,1.6-2.3c0.4-0.9,0.6-1.9,0.6-3.1v-10H311.3z"/>
		<path class="st1" d="M345.9,748.5v1.6h-28.2v-20h27.6v1.5h-26v7.3H343v1.5h-23.8v8H345.9z"/>
		<path class="st1" d="M364.9,748.7c3.5,0.1,7.6-0.3,12.1-1.1l0.3,1.5c-2.1,0.4-4.1,0.6-6.2,0.8c-2,0.2-4.1,0.3-6.2,0.3
			c-1.1,0-2.3-0.1-3.4-0.2c-1.2-0.1-2.3-0.3-3.4-0.6c-1.1-0.3-2.1-0.7-3.1-1.2c-1-0.5-1.8-1.1-2.6-1.9c-0.7-0.7-1.3-1.6-1.7-2.7
			c-0.4-1-0.6-2.2-0.6-3.6s0.2-2.6,0.6-3.6c0.4-1,1-1.9,1.7-2.7c0.7-0.7,1.6-1.4,2.5-1.9c1-0.5,2-0.9,3.1-1.2
			c1.1-0.3,2.2-0.5,3.4-0.6c1.2-0.1,2.3-0.2,3.4-0.2c3.6-0.1,7.8,0.3,12.4,1.1l-0.3,1.5c-2.3-0.4-4.4-0.7-6.4-0.9
			c-2-0.2-3.9-0.3-5.7-0.2c-1,0-2,0.1-3,0.2c-1,0.1-2,0.3-3,0.5c-1,0.2-1.9,0.6-2.8,1c-0.9,0.4-1.7,0.9-2.3,1.6
			c-0.7,0.6-1.2,1.4-1.6,2.3s-0.6,1.9-0.6,3.1c0,1.2,0.2,2.2,0.6,3.1c0.4,0.9,0.9,1.6,1.6,2.3c0.7,0.6,1.4,1.1,2.3,1.6
			c0.9,0.4,1.8,0.7,2.8,1c1,0.2,2,0.4,3,0.5S363.9,748.7,364.9,748.7z"/>
		<path class="st1" d="M411.9,731.7h-15v18.4h-1.6v-18.4h-15v-1.6h31.5V731.7z"/>
		<path class="st1" d="M416.6,750.1v-20h1.5v20H416.6z"/>
		<path class="st1" d="M439.6,750.3c-0.9,0-1.9,0-2.9-0.1s-2-0.2-3-0.4c-1-0.2-2-0.5-2.9-0.8c-0.9-0.3-1.8-0.8-2.6-1.3
			c-1.4-0.9-2.4-2-3.2-3.3c-0.7-1.3-1.1-2.8-1.1-4.4c0-1.4,0.2-2.6,0.7-3.7c0.5-1.1,1.2-2,2-2.8c0.8-0.8,1.8-1.5,2.9-2
			c1.1-0.5,2.3-1,3.5-1.2c2-0.4,4.2-0.7,6.5-0.7c1,0,2,0,3,0.1c1,0.1,2,0.2,3,0.4c1,0.2,1.9,0.5,2.9,0.8c0.9,0.4,1.8,0.8,2.6,1.3
			c1.4,0.9,2.4,2,3.2,3.3c0.7,1.3,1.1,2.8,1.1,4.4c0,1.6-0.4,3.1-1.1,4.4c-0.7,1.3-1.8,2.4-3.2,3.3c-0.8,0.5-1.7,1-2.6,1.3
			c-0.9,0.3-1.9,0.6-2.9,0.8c-1,0.2-2,0.3-3,0.4C441.6,750.2,440.6,750.3,439.6,750.3z M439.6,730.9c-1,0-2,0.1-3.1,0.2
			c-1.1,0.1-2.1,0.3-3.2,0.5s-2,0.6-3,1c-0.9,0.4-1.8,1-2.5,1.6c-0.7,0.7-1.3,1.4-1.7,2.4c-0.4,0.9-0.6,2-0.6,3.2s0.2,2.3,0.6,3.2
			c0.4,0.9,1,1.7,1.7,2.4c0.7,0.7,1.6,1.2,2.5,1.6c1,0.4,2,0.8,3,1c1,0.3,2.1,0.4,3.2,0.5c1.1,0.1,2.1,0.1,3.1,0.1
			c1,0,2-0.1,3.1-0.2c1.1-0.1,2.1-0.3,3.2-0.5c1.1-0.3,2.1-0.6,3-1c0.9-0.4,1.8-1,2.5-1.6c0.7-0.7,1.3-1.4,1.7-2.4
			c0.4-0.9,0.6-2,0.6-3.2c0-1.2-0.2-2.3-0.6-3.2c-0.4-0.9-1-1.7-1.7-2.4c-0.7-0.7-1.6-1.2-2.5-1.6c-1-0.4-2-0.8-3-1
			s-2.1-0.4-3.2-0.5C441.6,730.9,440.6,730.9,439.6,730.9z"/>
		<path class="st1" d="M486.5,750.3c-0.6,0-1.1-0.1-1.6-0.4c-0.5-0.2-0.9-0.5-1.3-0.9c-0.6-0.6-1.3-1.2-2-1.9
			c-0.7-0.7-1.5-1.4-2.3-2.2s-1.6-1.5-2.4-2.3c-0.8-0.8-1.7-1.6-2.5-2.4c-1.5-1.5-3-2.9-4.5-4.4c-1.5-1.4-2.8-2.7-4-3.7
			c-0.6-0.5-1.2-0.8-1.8-0.8c-0.3,0-0.5,0.1-0.7,0.2c-0.2,0.1-0.3,0.3-0.5,0.5c-0.1,0.2-0.2,0.4-0.2,0.7c0,0.3-0.1,0.5-0.1,0.8V750
			h-1.5v-16.6c0-0.5,0.1-0.9,0.2-1.4c0.1-0.4,0.3-0.8,0.6-1.2c0.3-0.3,0.6-0.6,0.9-0.8s0.8-0.3,1.3-0.3c1,0,2,0.4,2.8,1.2
			c0.6,0.5,1.2,1.1,1.9,1.7c0.7,0.6,1.4,1.3,2.1,2c0.7,0.7,1.5,1.4,2.2,2.2c0.8,0.7,1.5,1.5,2.3,2.2c0.8,0.8,1.6,1.6,2.5,2.4
			c0.8,0.8,1.6,1.6,2.4,2.3s1.5,1.5,2.3,2.1c0.7,0.7,1.4,1.3,2,1.9c0.7,0.6,1.3,0.9,1.8,0.9c0.3,0,0.5-0.1,0.7-0.2
			c0.2-0.1,0.4-0.3,0.5-0.5s0.2-0.4,0.3-0.7c0.1-0.2,0.1-0.5,0.1-0.7V730h1.5v16.6c0,0.5-0.1,0.9-0.2,1.3c-0.1,0.4-0.4,0.8-0.6,1.2
			c-0.3,0.3-0.6,0.6-1,0.8S486.9,750.3,486.5,750.3z"/>
		<path class="st1" d="M542,748.6v1.5h-28c-0.6,0-1.2-0.2-1.7-0.5c-0.5-0.3-0.9-0.8-1-1.5c-0.2-0.6,0-1.2,0.4-1.7
			c0.4-0.6,1-1,1.8-1.4c1.1-0.5,2.2-1,3.5-1.6c1.2-0.5,2.5-1.1,3.8-1.6s2.7-1.1,4-1.7c1.4-0.6,2.7-1.1,4.1-1.7
			c1.9-0.8,3.6-1.5,5.3-2.2c1.7-0.7,3.3-1.4,4.8-2c0.6-0.3,1-0.6,1.2-0.8c0.2-0.3,0.3-0.5,0.3-0.8c0-0.2-0.2-0.4-0.6-0.6
			c-0.3-0.2-0.9-0.3-1.5-0.3h-26.8v-1.6h26.8c0.3,0,0.7,0,1.1,0.1c0.4,0.1,0.8,0.2,1.1,0.3c0.3,0.2,0.6,0.4,0.9,0.7s0.4,0.6,0.5,1
			c0.1,0.7,0,1.3-0.5,1.9c-0.2,0.3-0.5,0.5-0.8,0.8c-0.3,0.2-0.7,0.4-1.1,0.6c-1.5,0.7-3.1,1.3-4.8,2.1c-1.7,0.7-3.5,1.5-5.3,2.2
			c-1.4,0.6-2.7,1.2-4.1,1.7c-1.4,0.6-2.7,1.1-4,1.7s-2.6,1.1-3.8,1.6c-1.2,0.5-2.4,1-3.5,1.5c-0.4,0.2-0.8,0.4-1,0.7
			c-0.2,0.2-0.3,0.5-0.3,0.7c0,0.2,0.2,0.4,0.4,0.5c0.2,0.2,0.5,0.2,0.9,0.2H542z"/>
		<path class="st1" d="M561.9,750.3c-0.9,0-1.9,0-2.9-0.1s-2-0.2-3-0.4c-1-0.2-2-0.5-2.9-0.8s-1.8-0.8-2.6-1.3
			c-1.4-0.9-2.4-2-3.2-3.3c-0.7-1.3-1.1-2.8-1.1-4.4c0-1.4,0.2-2.6,0.7-3.7c0.5-1.1,1.2-2,2-2.8s1.8-1.5,2.9-2
			c1.1-0.5,2.3-1,3.5-1.2c2-0.4,4.2-0.7,6.5-0.7c1,0,2,0,3,0.1c1,0.1,2,0.2,3,0.4c1,0.2,1.9,0.5,2.9,0.8c0.9,0.4,1.8,0.8,2.6,1.3
			c1.4,0.9,2.4,2,3.2,3.3c0.7,1.3,1.1,2.8,1.1,4.4c0,1.6-0.4,3.1-1.1,4.4c-0.7,1.3-1.8,2.4-3.2,3.3c-0.8,0.5-1.7,1-2.6,1.3
			c-0.9,0.3-1.9,0.6-2.9,0.8c-1,0.2-2,0.3-3,0.4C563.9,750.2,562.9,750.3,561.9,750.3z M561.9,730.9c-1,0-2,0.1-3.1,0.2
			c-1.1,0.1-2.1,0.3-3.2,0.5s-2,0.6-3,1c-0.9,0.4-1.8,1-2.5,1.6c-0.7,0.7-1.3,1.4-1.7,2.4c-0.4,0.9-0.6,2-0.6,3.2s0.2,2.3,0.6,3.2
			c0.4,0.9,1,1.7,1.7,2.4c0.7,0.7,1.6,1.2,2.5,1.6c1,0.4,2,0.8,3,1c1,0.3,2.1,0.4,3.2,0.5c1.1,0.1,2.1,0.1,3.1,0.1
			c1,0,2-0.1,3.1-0.2c1.1-0.1,2.1-0.3,3.2-0.5c1.1-0.3,2.1-0.6,3-1c0.9-0.4,1.8-1,2.5-1.6c0.7-0.7,1.3-1.4,1.7-2.4
			c0.4-0.9,0.6-2,0.6-3.2c0-1.2-0.2-2.3-0.6-3.2c-0.4-0.9-1-1.7-1.7-2.4c-0.7-0.7-1.6-1.2-2.5-1.6c-1-0.4-2-0.8-3-1
			s-2.1-0.4-3.2-0.5C563.9,730.9,562.9,730.9,561.9,730.9z"/>
		<path class="st1" d="M608.7,750.3c-0.6,0-1.1-0.1-1.6-0.4c-0.5-0.2-0.9-0.5-1.3-0.9c-0.6-0.6-1.3-1.2-2-1.9
			c-0.7-0.7-1.5-1.4-2.3-2.2s-1.6-1.5-2.4-2.3c-0.8-0.8-1.7-1.6-2.5-2.4c-1.5-1.5-3-2.9-4.5-4.4c-1.5-1.4-2.8-2.7-4-3.7
			c-0.6-0.5-1.2-0.8-1.8-0.8c-0.3,0-0.5,0.1-0.7,0.2c-0.2,0.1-0.3,0.3-0.5,0.5c-0.1,0.2-0.2,0.4-0.2,0.7c0,0.3-0.1,0.5-0.1,0.8V750
			h-1.5v-16.6c0-0.5,0.1-0.9,0.2-1.4c0.1-0.4,0.3-0.8,0.6-1.2c0.3-0.3,0.6-0.6,0.9-0.8s0.8-0.3,1.3-0.3c1,0,2,0.4,2.8,1.2
			c0.6,0.5,1.2,1.1,1.9,1.7c0.7,0.6,1.4,1.3,2.1,2c0.7,0.7,1.5,1.4,2.2,2.2c0.8,0.7,1.5,1.5,2.3,2.2c0.8,0.8,1.6,1.6,2.5,2.4
			c0.8,0.8,1.6,1.6,2.4,2.3s1.5,1.5,2.3,2.1c0.7,0.7,1.4,1.3,2,1.9c0.7,0.6,1.3,0.9,1.8,0.9c0.3,0,0.5-0.1,0.7-0.2
			c0.2-0.1,0.4-0.3,0.5-0.5s0.2-0.4,0.3-0.7c0.1-0.2,0.1-0.5,0.1-0.7V730h1.5v16.6c0,0.5-0.1,0.9-0.2,1.3c-0.1,0.4-0.4,0.8-0.6,1.2
			c-0.3,0.3-0.6,0.6-1,0.8S609.2,750.3,608.7,750.3z"/>
		<path class="st1" d="M647,748.5v1.6h-28.2v-20h27.6v1.5h-26v7.3h23.8v1.5h-23.8v8H647z"/>
	</g>
</g>
<g id="Calque_4">
	<g>
		<rect x="857.3" y="903.5" class="st0" width="25.8" height="1.5"/>
		<path class="st0" d="M860.7,895.4c0.2,2.3,1.6,4.1,2.5,5h2l0.1-0.1l-0.6-0.5c0,0-2.4-2-2.5-4.5c-0.1-1.2,0.4-2.4,1.4-3.5
			c2.2-2.5,2.2-4.8,1.7-6.3c-0.2-0.7-0.6-1.4-1-2.1h-1.9c1.3,1.4,3,4.1,0.1,7.4C861.2,892.2,860.6,893.8,860.7,895.4z"/>
		<path class="st0" d="M867.1,895.4c0.2,2.3,1.6,4.1,2.5,5h2l0.1-0.1l-0.6-0.5c0,0-2.3-2-2.5-4.5c-0.1-1.2,0.4-2.4,1.4-3.5
			c2.2-2.5,2.2-4.8,1.7-6.3c-0.2-0.7-0.6-1.4-1-2.1h-1.9c1.3,1.4,3,4.1,0.1,7.4C867.6,892.2,867,893.8,867.1,895.4z"/>
		<path class="st0" d="M873.5,895.4c0.2,2.3,1.6,4.1,2.5,5h2l0.1-0.1l-0.6-0.5c0,0-2.4-2-2.5-4.5c-0.1-1.2,0.4-2.4,1.4-3.5
			c2.2-2.5,2.2-4.8,1.7-6.3c-0.2-0.7-0.6-1.4-1-2.1h-1.9c1.3,1.4,3,4.1,0.1,7.4C874,892.2,873.4,893.8,873.5,895.4z"/>
	</g>
	<g>
		<g>
			<g>
				<path class="st2" d="M846.3,887.1c-0.5,0-1.1,0.1-1.6,0.2l0.8,3.7c0.4-0.1,0.8-0.1,1.2-0.1L846.3,887.1z"/>
				<path class="st0" d="M847.7,887c-0.5,0-1,0-1.5,0l0.3,3.8c0.4,0,0.7,0,1.1,0L847.7,887z"/>
				<path class="st3" d="M849.3,887.1c-0.5-0.1-1.1-0.1-1.6-0.1l-0.1,3.8c0.4,0,0.7,0,1.1,0.1L849.3,887.1z"/>
			</g>
			<g>
				<circle class="st0" cx="818" cy="898.8" r="2.2"/>
				<path class="st0" d="M734.9,892.2l0.4-3.6c-8-0.7-13.2-0.6-15.8,1.8c-2.7,2.5-2.4,6,0,8.3c2,1.9,6.6,2.6,15.8,1.8l-0.4-3.6
					c-6.3,0.6-11,0.4-12.6-1c-0.7-0.7-0.7-1.8-0.1-2.5c0,0,0,0,0.1-0.1C723.9,891.9,728.6,891.6,734.9,892.2z"/>
				<path class="st0" d="M771.2,892.9c-2-0.1-4-0.2-4.9-0.3c-0.6-0.1-0.6-0.5,0-0.6c1.8-0.3,6.4-0.7,14,0.1l0.3-3.2
					c-8.6-1.1-16.1-0.7-18.2,1.2c-0.7,0.6-1.1,1.5-1.1,2.4c0,2.7,2.9,3.3,9.7,3.7c2.1,0.1,3.9,0.2,4.8,0.3c0.5,0.1,0.5,0.5,0,0.6
					c-2.1,0.5-7.3,0.6-14-0.1l-0.4,3.2c3,0.4,6,0.6,9,0.5c3.8,0,7.7-0.5,9.2-1.8c0.7-0.6,1.1-1.4,1-2.3
					C780.6,893.8,777.3,893.3,771.2,892.9z"/>
				<path class="st0" d="M801.7,888.2c-2.6-0.1-3.6,1.9-4.6,4.7c-0.6,1.6-0.8,2.3-1,2.8c-0.1,0.3-0.4,0.4-0.6,0
					c-0.2-0.5-0.6-1.2-1.3-2.9c-1.1-2.8-1.7-4.7-4.2-4.6c-2.5,0.1-3.6,2.5-5.5,7.1c-0.5,1.2-1.7,3.9-2.4,5.4h4.2
					c0.7-1.6,1.2-2.6,1.7-3.9c0.6-1.3,1.2-2.7,1.7-3.7c0.2-0.3,0.5-0.3,0.7,0c0.3,0.7,1.2,2.7,1.4,3.3c1.1,2.7,2,4.3,3.9,4.3
					c2,0,2.8-1.6,3.9-4.2c0.3-0.7,1.2-2.9,1.6-3.6c0.1-0.3,0.4-0.3,0.5,0c0.6,1.1,1.3,2.7,1.9,4.2c0.5,1.3,0.8,2,1.6,3.5h4.2
					c-0.7-1.5-1.7-3.8-2.2-5.1C805.2,890.8,804.2,888.3,801.7,888.2z"/>
				<path class="st0" d="M828,891.3l-2.2-2.9c-2.1,2-4.9,3-7.8,3c-2.9,0.1-5.7-1-7.8-3l-2.2,2.9c2.7,2.6,6.3,4,10,3.9
					C821.7,895.3,825.3,893.9,828,891.3z"/>
				<path class="st0" d="M844.4,891.2l-1-3.6c-2.1,0.5-4.4,2.6-6.2,4.2l-3.9-3.5l-2.6,2.9l3.3,2.9c-2.5,1.6-4.9,3-8,3v3.6
					c4.4,0,7.7-2.2,10.7-4.1l4.9,4.4l2.6-2.9l-4.4-3.9C841.4,892.9,842.9,891.6,844.4,891.2z"/>
				<path class="st0" d="M748.2,888.2c-8.6,0-10.4,3.5-10.4,6.4s1.8,6.4,10.4,6.4s10.4-3.5,10.4-6.4S756.8,888.2,748.2,888.2z
					 M748.2,897.5c-3,0-6.5-0.5-6.5-2.9c0-2.4,3.5-2.9,6.5-2.9c3,0,6.5,0.5,6.5,2.9S751.2,897.5,748.2,897.5z"/>
			</g>
		</g>
		<g>
			<path class="st0" d="M689.3,892.8c1.1-1.2,2.3-2.2,3.7-3.1c1.4-0.9,2.8-1.7,4.4-2.2c1.5-0.5,2.8-0.5,3.2,0.6c0.2,0.6,0.2,1.3,0,2
				c-0.1,0.5-0.3,0.9-0.5,1.4l0.2,0.1c0.8-1.2,1.5-2.6,1.5-3.9c0-0.9-0.5-1.6-1.3-1.9c-0.9-0.3-1.8-0.4-2.7-0.3
				c-1,0.1-1.9,0.3-2.9,0.6c2.1-1,4.5-1.5,6.8-1.2l0-0.3c-2.2-1-4.6-1.4-7.1-1.4c-7.5,0.1-13.7,4.6-13.7,11.1c0,3.2,1.5,6.1,4.1,7.9
				l0.3-0.2C684.6,900.1,686,896.4,689.3,892.8z"/>
			<path class="st0" d="M704.3,885.9l-0.3,0.2c0.8,1.9-0.7,5.7-4,9.3c-1.1,1.1-2.3,2.1-3.6,3c-1.4,0.9-2.8,1.7-4.4,2.2
				c-1.5,0.5-2.8,0.5-3.2-0.6c-0.2-0.6-0.2-1.3,0-2c0.1-0.5,0.3-0.9,0.5-1.4l-0.2-0.1c-0.8,1.2-1.5,2.6-1.5,3.9
				c0,0.9,0.5,1.6,1.3,1.9c0.9,0.3,1.8,0.4,2.7,0.3c0.9-0.1,1.9-0.3,2.8-0.6c-2.1,1-4.4,1.4-6.7,1.2l0,0.3c2.2,1,4.6,1.4,7.1,1.4
				c7.6-0.1,13.7-4.6,13.7-11.1C708.4,890.7,706.8,887.8,704.3,885.9z"/>
			<path class="st0" d="M693,896.5c0.2,0.1,0.5,0.1,0.7,0c0.5-0.1,0.9-0.3,1.4-0.5c0.7-0.4,1.4-0.9,1.9-1.6c1.2-1.5,1.7-2.9,1.3-3.6
				c-0.4-0.7-1.6-0.5-3,0.3c0.1,0,0.1,0,0.2,0c0.3,0,0.6,0.2,0.9,0.3c0.3,0.2,0.4,0.5,0.4,0.8c-0.1-0.3-0.3-0.5-0.5-0.6
				c-0.2-0.1-0.5-0.1-0.7,0c-0.5,0.1-0.9,0.3-1.4,0.5c-0.6,0.3-1.2,0.7-1.6,1.2c0,0,0,0-0.1,0.1c0,0,0,0,0,0c-1.3,1.5-2,3.1-1.5,3.9
				c0.4,0.7,1.6,0.5,3-0.3c-0.1,0-0.1,0-0.2,0c-0.3,0-0.6-0.2-0.9-0.3c-0.3-0.2-0.4-0.5-0.4-0.8C692.5,896.2,692.7,896.4,693,896.5z
				"/>
		</g>
	</g>
</g>
</svg>
